<svg width="58" height="54" viewBox="0 0 58 54" fill="none" xmlns="http://www.w3.org/2000/svg">
<path d="M27.2491 4.27713L27.2502 4.27853L31.3102 9.23474L31.3109 9.2356C31.3268 9.2549 31.3425 9.27406 31.3582 9.29307C31.7602 9.78212 32.08 10.1712 32.5344 10.3907C33.0059 10.6185 33.5733 10.6436 34.394 10.6436H42.485C47.5662 10.6436 52.0492 12.9643 54.7517 16.5006L55.149 16.197L54.7518 16.5006C55.188 17.0714 55.1446 17.6711 54.8092 18.1545C54.46 18.6578 53.7743 19.0498 52.9198 19.0498H2.9C1.53385 19.0498 0.5 18.0416 0.5 16.8851V12.0089C0.5 5.82231 5.97746 0.731201 12.818 0.731201H19.546C21.862 0.731201 23.3228 1.0776 24.4206 1.66754C25.5224 2.25967 26.3105 3.12283 27.2491 4.27713Z" fill="#77BFA3" stroke="black"/>
<path d="M2.89997 24.0476H2.89998L55.0519 24.0468C56.4145 24.0468 57.4475 25.0504 57.4519 26.2042L57.5 39.2689C57.5 39.2691 57.5 39.2694 57.5 39.2697C57.4995 46.8148 50.8042 53.0246 42.485 53.0246H15.515C7.19546 53.0246 0.5 46.8144 0.5 39.2689V26.2122C0.5 25.0557 1.53382 24.0476 2.89997 24.0476Z" fill="#77BFA3" stroke="black"/>
</svg>
