<svg width="56" height="57" viewBox="0 0 56 57" fill="none" xmlns="http://www.w3.org/2000/svg">
<path d="M28 43.7048C23.4399 43.7048 19.4844 41.0931 17.5387 37.2739C22.2192 38.2438 25.6216 37.6502 29.0836 35.7219C29.212 35.6503 29.3407 35.5767 29.4789 35.4957L29.4832 35.4931L31.0783 34.537C32.5879 33.6719 33.8463 33.2278 35.1568 33.2319C36.3955 33.2358 37.7406 33.6404 39.4447 34.5801C38.2345 39.8105 33.5678 43.7048 28 43.7048ZM28 20.0813C33.719 20.0813 38.4868 24.1899 39.5332 29.6326C37.6342 28.8705 35.8949 28.5931 34.1898 28.7535C32.2415 28.9369 30.3825 29.688 28.4229 30.8626L28.4226 30.8628L27.053 31.6852L26.5675 31.9517C25.1046 32.7205 23.6867 33.1529 22.0296 33.2138C20.4368 33.2723 18.5979 32.9887 16.2567 32.2961C16.2523 32.1623 16.25 32.028 16.25 31.893C16.25 25.3672 21.513 20.0813 28 20.0813ZM42 0.734375C47.5205 0.734375 52 5.23284 52 10.7873V45.9636C52 51.518 47.5205 56.0165 42 56.0165H14C8.47953 56.0165 4.00001 51.518 4.00001 45.9636V10.7873C4.00001 5.23284 8.47953 0.734375 14 0.734375H42ZM28 15.5637C19.023 15.5637 11.75 22.877 11.75 31.893C11.75 40.9091 19.023 48.2224 28 48.2224C36.977 48.2224 44.25 40.9091 44.25 31.893C44.25 22.877 36.977 15.5637 28 15.5637ZM42 8.52845H38.5C37.255 8.52845 36.25 9.54213 36.25 10.7873C36.25 12.0324 37.255 13.0461 38.5 13.0461H42C43.245 13.0461 44.25 12.0324 44.25 10.7873C44.25 9.54213 43.245 8.52845 42 8.52845Z" fill="#77BFA3" stroke="black"/>
</svg>
