<svg width="64" height="63" viewBox="0 0 64 63" fill="none" xmlns="http://www.w3.org/2000/svg">
<path d="M23.9579 9.962L24.1837 9.89554L24.2764 9.67918L28.1028 0.743774H35.3557L39.1822 9.67918L39.2602 9.86142L39.4419 9.94067C39.7915 10.0931 40.1618 10.2652 40.5388 10.4404L40.5418 10.4418C40.9155 10.6155 41.2959 10.7923 41.6574 10.9499L41.8518 11.0347L42.0479 10.9539L51.1586 7.19791L56.376 12.317L52.5543 21.2413L52.4568 21.469L52.5789 21.6845C52.9699 22.375 53.3471 23.119 53.5692 23.7728L53.6422 23.9877L53.852 24.0742L62.9585 27.8284V34.9225L53.852 38.6767L53.6689 38.7522L53.5871 38.9326C53.4319 39.2754 53.2566 39.6385 53.078 40.0085L53.0766 40.0114C52.8996 40.378 52.7193 40.7514 52.5585 41.1064L52.4676 41.3071L52.5543 41.5096L56.376 50.4338L51.1586 55.553L42.0479 51.797L41.8274 51.7061L41.618 51.8203C41.0946 52.1056 40.5322 52.3447 39.9683 52.5845C39.7926 52.6592 39.6168 52.734 39.4419 52.8102L39.2602 52.8895L39.1822 53.0717L35.3557 62.0071H28.1028L24.2764 53.0717L24.194 52.8795L23.9994 52.8031C23.6211 52.6546 23.2586 52.4864 22.8947 52.3127C22.825 52.2794 22.7549 52.2458 22.6846 52.212C22.3927 52.0719 22.0963 51.9297 21.8011 51.801L21.6067 51.7162L21.4106 51.797L12.2999 55.553L7.08249 50.4338L10.9042 41.5096L10.9963 41.2943L10.89 41.0857C10.4936 40.3077 10.1864 39.7043 9.87891 38.9502L9.79992 38.7564L9.60648 38.6767L0.5 34.9225V27.8284L9.60648 24.0742L9.79992 23.9944L9.87891 23.8007C10.1864 23.0465 10.4936 22.4432 10.89 21.6652L10.9963 21.4566L10.9042 21.2413L7.08249 12.317L12.2999 7.19791L21.4106 10.9539L21.6311 11.0448L21.8405 10.9306C22.5601 10.5384 23.2262 10.1774 23.9579 9.962ZM44.0981 31.2978C44.0981 24.569 38.5638 19.1525 31.7293 19.1525C24.8947 19.1525 19.3605 24.569 19.3605 31.2978C19.3605 38.0266 24.8947 43.4431 31.7293 43.4431C38.5638 43.4431 44.0981 38.0266 44.0981 31.2978Z" fill="#77BFA3" stroke="black"/>
</svg>
