<svg width="147" height="52" viewBox="0 0 147 52" fill="none" xmlns="http://www.w3.org/2000/svg">
<rect width="147" height="52" fill="#77BFA3"/>
<path d="M50.432 37.208C49.3973 37.208 48.6347 36.904 48.144 36.296C47.6533 35.688 47.36 34.7813 47.264 33.576C47.2533 33.3093 47.2427 33.0373 47.232 32.76C47.2213 32.4827 47.2213 32.216 47.232 31.96C47.2853 31.2133 47.4133 30.536 47.616 29.928C47.8187 29.32 48.144 28.7653 48.592 28.264C49.0507 27.7627 49.6747 27.2827 50.464 26.824C50.9227 26.5573 51.3973 26.3013 51.888 26.056C52.3787 25.8107 52.8693 25.5813 53.36 25.368V21.288C53.36 20.584 53.2267 20.072 52.96 19.752C52.6933 19.432 52.2133 19.272 51.52 19.272C50.912 19.272 50.4587 19.4107 50.16 19.688C49.8613 19.9653 49.696 20.4827 49.664 21.24C49.6533 21.4853 49.6427 21.7947 49.632 22.168C49.632 22.5307 49.632 22.9093 49.632 23.304C49.6427 23.688 49.6533 24.0347 49.664 24.344H47.6C47.5893 23.9173 47.5787 23.432 47.568 22.888C47.5573 22.344 47.5573 21.8587 47.568 21.432C47.6 20.5253 47.7547 19.7893 48.032 19.224C48.3093 18.6587 48.736 18.248 49.312 17.992C49.888 17.7253 50.6453 17.592 51.584 17.592C52.5653 17.592 53.3333 17.736 53.888 18.024C54.4533 18.3013 54.8533 18.744 55.088 19.352C55.3333 19.9493 55.456 20.7333 55.456 21.704V37H53.344V35.272H52.992C52.7573 35.88 52.448 36.3547 52.064 36.696C51.68 37.0373 51.136 37.208 50.432 37.208ZM51.136 35.56C51.68 35.56 52.1333 35.4053 52.496 35.096C52.8693 34.776 53.1573 34.312 53.36 33.704V27.128C52.9867 27.2773 52.6027 27.4533 52.208 27.656C51.824 27.8587 51.392 28.1413 50.912 28.504C50.304 28.952 49.8987 29.4587 49.696 30.024C49.4933 30.5787 49.376 31.224 49.344 31.96C49.3333 32.152 49.328 32.3813 49.328 32.648C49.3387 32.9147 49.3493 33.1813 49.36 33.448C49.4133 34.12 49.5947 34.6427 49.904 35.016C50.2133 35.3787 50.624 35.56 51.136 35.56ZM52.208 16.04V14.28H53.968V16.04H52.208ZM49.232 16.04V14.28H50.976V16.04H49.232ZM58.869 37V11.4H60.997V19.512H61.461C61.781 18.8507 62.1437 18.3653 62.549 18.056C62.9543 17.736 63.5303 17.576 64.277 17.576C65.2797 17.576 66.0317 17.8693 66.533 18.456C67.045 19.0427 67.301 20.0187 67.301 21.384V37H65.189V21.24C65.189 20.5253 65.0557 20.0133 64.789 19.704C64.5223 19.3947 64.101 19.24 63.525 19.24C62.9277 19.24 62.4103 19.3947 61.973 19.704C61.5357 20.0133 61.2103 20.5093 60.997 21.192V37H58.869ZM70.7128 37V11.4H72.7288V18.28L72.5208 26.456H73.0008L74.2808 22.856L76.1688 17.8H78.3928L75.1128 25.768L79.1288 37H76.9048L73.8168 28.056L72.7768 30.312V37H70.7128ZM84.571 37.224C83.579 37.224 82.7843 37.0853 82.187 36.808C81.5897 36.52 81.1523 36.072 80.875 35.464C80.6083 34.856 80.4537 34.056 80.411 33.064C80.379 32.2 80.3523 31.2933 80.331 30.344C80.3203 29.384 80.315 28.4133 80.315 27.432C80.315 26.44 80.3203 25.464 80.331 24.504C80.3523 23.544 80.379 22.6213 80.411 21.736C80.4537 20.744 80.6083 19.944 80.875 19.336C81.1523 18.728 81.5897 18.2853 82.187 18.008C82.7843 17.72 83.579 17.576 84.571 17.576C85.5737 17.576 86.3683 17.72 86.955 18.008C87.5417 18.2853 87.9683 18.728 88.235 19.336C88.5123 19.944 88.6723 20.744 88.715 21.736C88.7363 22.6 88.7523 23.512 88.763 24.472C88.7843 25.432 88.795 26.4027 88.795 27.384C88.795 28.3653 88.7843 29.3413 88.763 30.312C88.7523 31.272 88.7363 32.1893 88.715 33.064C88.6723 34.0453 88.5123 34.8453 88.235 35.464C87.9683 36.072 87.5417 36.52 86.955 36.808C86.3683 37.0853 85.5737 37.224 84.571 37.224ZM84.571 35.528C85.275 35.528 85.7817 35.3787 86.091 35.08C86.4003 34.7813 86.5657 34.2587 86.587 33.512C86.619 32.3707 86.6457 31.304 86.667 30.312C86.6883 29.32 86.699 28.3493 86.699 27.4C86.699 26.4507 86.6883 25.48 86.667 24.488C86.6457 23.496 86.619 22.4347 86.587 21.304C86.5657 20.5467 86.4057 20.0187 86.107 19.72C85.8083 19.4213 85.2963 19.272 84.571 19.272C83.8457 19.272 83.3283 19.4213 83.019 19.72C82.7097 20.0187 82.5443 20.5467 82.523 21.304C82.491 22.4347 82.4643 23.496 82.443 24.488C82.4323 25.48 82.427 26.456 82.427 27.416C82.427 28.3653 82.4323 29.336 82.443 30.328C82.4643 31.32 82.491 32.3813 82.523 33.512C82.5443 34.2587 82.7097 34.7813 83.019 35.08C83.339 35.3787 83.8563 35.528 84.571 35.528ZM85.179 16.04V14.28H86.939V16.04H85.179ZM82.203 16.04V14.28H83.947V16.04H82.203ZM93.754 37L91.066 11.4H93.274L94.666 25.656L95.322 35.08H96.186L96.826 25.656L98.218 11.4H100.458L97.738 37H93.754ZM104.62 37.208C103.585 37.208 102.822 36.904 102.332 36.296C101.841 35.688 101.548 34.7813 101.452 33.576C101.441 33.3093 101.43 33.0373 101.42 32.76C101.409 32.4827 101.409 32.216 101.42 31.96C101.473 31.2133 101.601 30.536 101.804 29.928C102.006 29.32 102.332 28.7653 102.78 28.264C103.238 27.7627 103.862 27.2827 104.652 26.824C105.11 26.5573 105.585 26.3013 106.076 26.056C106.566 25.8107 107.057 25.5813 107.548 25.368V21.288C107.548 20.584 107.414 20.072 107.148 19.752C106.881 19.432 106.401 19.272 105.708 19.272C105.1 19.272 104.646 19.4107 104.348 19.688C104.049 19.9653 103.884 20.4827 103.852 21.24C103.841 21.4853 103.83 21.7947 103.82 22.168C103.82 22.5307 103.82 22.9093 103.82 23.304C103.83 23.688 103.841 24.0347 103.852 24.344H101.788C101.777 23.9173 101.766 23.432 101.756 22.888C101.745 22.344 101.745 21.8587 101.756 21.432C101.788 20.5253 101.942 19.7893 102.22 19.224C102.497 18.6587 102.924 18.248 103.5 17.992C104.076 17.7253 104.833 17.592 105.772 17.592C106.753 17.592 107.521 17.736 108.076 18.024C108.641 18.3013 109.041 18.744 109.276 19.352C109.521 19.9493 109.644 20.7333 109.644 21.704V37H107.532V35.272H107.18C106.945 35.88 106.636 36.3547 106.252 36.696C105.868 37.0373 105.324 37.208 104.62 37.208ZM105.324 35.56C105.868 35.56 106.321 35.4053 106.684 35.096C107.057 34.776 107.345 34.312 107.548 33.704V27.128C107.174 27.2773 106.79 27.4533 106.396 27.656C106.012 27.8587 105.58 28.1413 105.1 28.504C104.492 28.952 104.086 29.4587 103.884 30.024C103.681 30.5787 103.564 31.224 103.532 31.96C103.521 32.152 103.516 32.3813 103.516 32.648C103.526 32.9147 103.537 33.1813 103.548 33.448C103.601 34.12 103.782 34.6427 104.092 35.016C104.401 35.3787 104.812 35.56 105.324 35.56ZM113.057 37V11.4H115.185V19.512H115.649C115.969 18.8507 116.331 18.3653 116.737 18.056C117.142 17.736 117.718 17.576 118.465 17.576C119.467 17.576 120.219 17.8693 120.72 18.456C121.233 19.0427 121.489 20.0187 121.489 21.384V37H119.377V21.24C119.377 20.5253 119.243 20.0133 118.977 19.704C118.71 19.3947 118.289 19.24 117.713 19.24C117.115 19.24 116.598 19.3947 116.161 19.704C115.723 20.0133 115.398 20.5093 115.185 21.192V37H113.057ZM129.108 37.224C127.626 37.224 126.602 36.92 126.036 36.312C125.482 35.704 125.204 34.7067 125.204 33.32V19.496H123.876V17.8H125.236V12.36H127.364V17.8H130.212V19.496H127.316V33.528C127.316 34.296 127.423 34.824 127.636 35.112C127.85 35.4 128.356 35.544 129.156 35.544C129.455 35.544 129.7 35.5387 129.892 35.528C130.084 35.5067 130.298 35.4747 130.532 35.432V37.064C130.33 37.1067 130.106 37.144 129.86 37.176C129.615 37.208 129.364 37.224 129.108 37.224ZM131.917 13.96V11.4H135.277V13.96H131.917ZM132.541 37V17.8H134.653V37H132.541Z" fill="black"/>
<path d="M12.284 21.4812L18.9186 12.5046C23.2072 6.70213 25.3515 3.80092 27.3522 4.414C29.3527 5.0271 29.3527 8.58544 29.3527 15.7021V16.3732C29.3527 18.94 29.3527 20.2234 30.173 21.0284L30.2163 21.0701C31.0542 21.8582 32.3899 21.8582 35.0614 21.8582C39.869 21.8582 42.273 21.8582 43.0852 23.3162C43.0987 23.3402 43.1117 23.3647 43.1245 23.3892C43.8915 24.8699 42.4996 26.753 39.7159 30.5191L33.0813 39.4956C28.7926 45.2979 26.6483 48.1993 24.6476 47.5861C22.6471 46.9729 22.6471 43.4146 22.6471 36.2978L22.6473 35.6272C22.6473 33.0601 22.6473 31.7768 21.827 30.9717L21.7837 30.9301C20.9458 30.1421 19.61 30.1421 16.9385 30.1421C12.1309 30.1421 9.72714 30.1421 8.91475 28.6839C8.90129 28.6598 8.8882 28.6356 8.87551 28.6109C8.10862 27.1304 9.5004 25.2473 12.284 21.4812Z" stroke="black" stroke-width="1.5"/>
</svg>
