<svg width="44" height="67" viewBox="0 0 44 67" fill="none" xmlns="http://www.w3.org/2000/svg">
<g filter="url(#filter0_d_161_531)">
<path d="M8.54775 23.5559L15.0548 11.7483C19.2609 4.11582 21.364 0.29962 23.3262 1.10606C25.2882 1.91252 25.2882 6.5931 25.2882 15.9543V16.8369C25.2882 20.2133 25.2882 21.9015 26.0927 22.9604L26.1352 23.0153C26.957 24.0519 28.267 24.0519 30.8872 24.0519C35.6023 24.0519 37.96 24.0519 38.7567 25.9697C38.7698 26.0013 38.7826 26.0335 38.7951 26.0657C39.5474 28.0134 38.1823 30.4904 35.4521 35.4442L28.9451 47.2518C24.7389 54.884 22.6358 58.7005 20.6736 57.8939C18.7116 57.0874 18.7116 52.4068 18.7116 43.0454L18.7118 42.1634C18.7118 38.7867 18.7118 37.0986 17.9072 36.0396L17.8647 35.9849C17.043 34.9483 15.7329 34.9483 13.1127 34.9483C8.39762 34.9483 6.04009 34.9483 5.24332 33.0303C5.23012 32.9986 5.21729 32.9667 5.20483 32.9342C4.45269 30.9868 5.8177 28.5099 8.54775 23.5559Z" fill="black"/>
<path d="M8.54775 23.5559L15.0548 11.7483C19.2609 4.11582 21.364 0.29962 23.3262 1.10606C25.2882 1.91252 25.2882 6.5931 25.2882 15.9543V16.8369C25.2882 20.2133 25.2882 21.9015 26.0927 22.9604L26.1352 23.0153C26.957 24.0519 28.267 24.0519 30.8872 24.0519C35.6023 24.0519 37.96 24.0519 38.7567 25.9697C38.7698 26.0013 38.7826 26.0335 38.7951 26.0657C39.5474 28.0134 38.1823 30.4904 35.4521 35.4442L28.9451 47.2518C24.7389 54.884 22.6358 58.7005 20.6736 57.8939C18.7116 57.0874 18.7116 52.4068 18.7116 43.0454L18.7118 42.1634C18.7118 38.7867 18.7118 37.0986 17.9072 36.0396L17.8647 35.9849C17.043 34.9483 15.7329 34.9483 13.1127 34.9483C8.39762 34.9483 6.04009 34.9483 5.24332 33.0303C5.23012 32.9986 5.21729 32.9667 5.20483 32.9342C4.45269 30.9868 5.8177 28.5099 8.54775 23.5559Z" stroke="black" stroke-width="2"/>
</g>
<defs>
<filter id="filter0_d_161_531" x="-0.00012207" y="-0.000701904" width="44.0002" height="67.0014" filterUnits="userSpaceOnUse" color-interpolation-filters="sRGB">
<feFlood flood-opacity="0" result="BackgroundImageFix"/>
<feColorMatrix in="SourceAlpha" type="matrix" values="0 0 0 0 0 0 0 0 0 0 0 0 0 0 0 0 0 0 127 0" result="hardAlpha"/>
<feOffset dy="4"/>
<feGaussianBlur stdDeviation="2"/>
<feComposite in2="hardAlpha" operator="out"/>
<feColorMatrix type="matrix" values="0 0 0 0 0 0 0 0 0 0 0 0 0 0 0 0 0 0 0.25 0"/>
<feBlend mode="normal" in2="BackgroundImageFix" result="effect1_dropShadow_161_531"/>
<feBlend mode="normal" in="SourceGraphic" in2="effect1_dropShadow_161_531" result="shape"/>
</filter>
</defs>
</svg>
