<svg width="43" height="64" viewBox="0 0 43 64" fill="none" xmlns="http://www.w3.org/2000/svg">
<path d="M5.26869 25.6041L13.098 12.8988C18.1588 4.68608 20.6893 0.579748 23.0502 1.44749C25.4109 2.31526 25.411 7.35169 25.411 17.4245V18.3743C25.411 22.0073 25.411 23.8239 26.379 24.9633L26.4301 25.0223C27.4188 26.1378 28.9951 26.1378 32.1477 26.1378C37.821 26.1378 40.6578 26.1378 41.6163 28.2013C41.6322 28.2354 41.6475 28.27 41.6626 28.3047C42.5677 30.4004 40.9252 33.0657 37.6402 38.3962L29.811 51.1013C24.75 59.3139 22.2195 63.4204 19.8586 62.5526C17.4979 61.6847 17.4979 56.6483 17.4979 46.5753L17.4981 45.6261C17.4981 41.9928 17.4981 40.1764 16.5301 39.0368L16.479 38.9779C15.4903 37.8626 13.9139 37.8626 10.7613 37.8626C5.08806 37.8626 2.25144 37.8626 1.29277 35.7987C1.27689 35.7647 1.26144 35.7303 1.24646 35.6953C0.341479 33.5999 1.98388 30.9346 5.26869 25.6041Z" fill="#77BFA3" stroke="black" stroke-width="1.5"/>
</svg>
